<svg width="56" height="56" viewBox="0 0 56 56" fill="none" xmlns="http://www.w3.org/2000/svg">
<path d="M51.2159 26.698C50.7637 25.2961 50.0154 24.0078 49.0221 22.9202C48.1146 21.9514 47.0044 21.195 45.7706 20.705C44.519 20.213 43.1855 19.9631 41.8408 19.9686H41.6221C40.0167 19.9767 38.432 20.3313 36.9764 21.0083C35.3694 21.7373 33.9484 22.821 32.8202 24.1778H32.7091L32.3802 20.6042H22.5796V27.8658H25.7738V47.52H33.5848V33.8553C33.5864 33.0479 33.7156 32.2457 33.9675 31.4787C34.2102 30.708 34.5798 29.9833 35.061 29.3343C35.5279 28.7035 36.1252 28.1808 36.8123 27.8017C37.5349 27.416 38.3445 27.2228 39.1634 27.2404C39.8244 27.2341 40.4814 27.3455 41.1035 27.5694C41.7115 27.7939 42.2559 28.1628 42.6899 28.6441C43.1761 29.2011 43.5425 29.8522 43.7664 30.5569C44.0649 31.5029 44.2038 32.492 44.1773 33.4837V47.5336H51.9959V32.1074C52.0368 30.2736 51.7733 28.4455 51.2159 26.698Z" fill="black"/>
<path d="M14.4661 8.4664H24.1676L13.7015 32.2366H4L14.4661 8.4664Z" fill="#FF0000"/>
</svg>
